# xmcd
#
# Track frame offsets:
#       150
#       7890
#       15802
#       29770
#       39365
#       46370
#       57770
#       70337
#       79747
#       91780
#       104247
#       115412
#       123010
#       137087
#       144985
#       156382
#       166347
#       176837
#       187395
#       195670
#       203085
#       213362
#       221887
#       233357
#
# Disc length: 3280 seconds
#
# Revision: 2
# Processed by: cddbd v1.5.2PL0 Copyright (c) Steve Scherf et al.
# Submitted via: FreeDbEdit v0.1
#
DISCID=510cce18
DTITLE=Tom Jones - The Best of Tom Jones [CD4]
DYEAR=1900
DGENRE=Blues
TTITLE0=Celebration
TTITLE1=Listen to the Music
TTITLE2=Makin' the Best of a Bad Situation
TTITLE3=On Broadway
TTITLE4=Daughter of Darkness
TTITLE5=Fame
TTITLE6=Oh Pretty Woman
TTITLE7=Da Ya Think I'm Sexy
TTITLE8=Fame and Fortune
TTITLE9=Take Me to the River
TTITLE10=Love Me Tonight
TTITLE11=Whenever I Call You Friend
TTITLE12=Let Your Love Flow
TTITLE13=Upside Down
TTITLE14=Knock on Wood
TTITLE15=We Can Work It Out
TTITLE16=Late in the Evening
TTITLE17=We Don't Talk Anymore
TTITLE18=Fever
TTITLE19=Turn on Your Love Light
TTITLE20=Lady Madonna
TTITLE21=Ain't Gonna Bump No More
TTITLE22=Don't Cry for Me Argentina
TTITLE23=Kiss an Angel Good Mornin
EXTD=
EXTT0=
EXTT1=
EXTT2=
EXTT3=
EXTT4=
EXTT5=
EXTT6=
EXTT7=
EXTT8=
EXTT9=
EXTT10=
EXTT11=
EXTT12=
EXTT13=
EXTT14=
EXTT15=
EXTT16=
EXTT17=
EXTT18=
EXTT19=
EXTT20=
EXTT21=
EXTT22=
EXTT23=
PLAYORDER=
